<mxfile host="app.diagrams.net" modified="2023-11-30T06:17:14.281Z" agent="Mozilla/5.0 (X11; Linux x86_64) AppleWebKit/537.36 (KHTML, like Gecko) Chrome/118.0.0.0 Safari/537.36" version="22.1.5" etag="lPz-L5lTsmQQvirvIHxt" type="github">
  <diagram name="第 1 页" id="_etAEe6QqUCHGjqpc869">
    <mxGraphModel>
      <root>
        <mxCell id="0" />
        <mxCell id="1" parent="0" />
      </root>
    </mxGraphModel>
  </diagram>
</mxfile>
